<?xml version="1.0" encoding="UTF-8" standalone="no"?>
<svg
   xmlns:dc="http://purl.org/dc/elements/1.1/"
   xmlns:cc="http://creativecommons.org/ns#"
   xmlns:rdf="http://www.w3.org/1999/02/22-rdf-syntax-ns#"
   xmlns:svg="http://www.w3.org/2000/svg"
   xmlns="http://www.w3.org/2000/svg"
   id="svg60"
   version="1.1"
   viewBox="0 0 238.89999 118.64"
   height="118.64"
   width="238.89999">
  <metadata
     id="metadata66">
    <rdf:RDF>
      <cc:Work
         rdf:about="">
        <dc:format>image/svg+xml</dc:format>
        <dc:type
           rdf:resource="http://purl.org/dc/dcmitype/StillImage" />
      </cc:Work>
    </rdf:RDF>
  </metadata>
  <defs
     id="defs64" />
  <style
     id="style2">.st0{fill:#FFFFFF;width:16px;height:16px} .st1{fill:none;stroke:#FFFFFF;stroke-width:1.5;stroke-linecap:round;} .st2{fill:none;stroke:#FFFFFF;stroke-width:2;stroke-linecap:round;} .st3{fill:none;stroke:#FFFFFF;} .st4{fill:#231F20;} .st5{opacity:0.75;fill:none;stroke:#FFFFFF;stroke-width:5;enable-background:new;} .st6{fill:none;stroke:#FFFFFF;stroke-width:5;} .st7{opacity:0.4;fill:#FFFFFF;enable-background:new;} .st8{opacity:0.6;fill:#FFFFFF;enable-background:new;} .st9{opacity:0.8;fill:#FFFFFF;enable-background:new;} .st10{opacity:0.9;fill:#FFFFFF;enable-background:new;} .st11{opacity:0.3;fill:#FFFFFF;enable-background:new;} .st12{opacity:0.5;fill:#FFFFFF;enable-background:new;} .st13{opacity:0.7;fill:#FFFFFF;enable-background:new;}</style>
  <path
     style="fill:#ffffff"
     id="path4"
     d="m 16.5,8.14 c 0.3,0.1 0.4,0.5 0.2,0.8 -0.1,0.1 -0.1,0.2 -0.2,0.2 l -11.4,7 c -0.5,0.3 -0.8,0.1 -0.8,-0.5 v -14 c 0,-0.5 0.4,-0.8 0.8,-0.5 z"
     class="st0" />
  <path
     style="fill:#ffffff"
     id="path6"
     d="m 24,0.64 h 2.2 c 0.6,0 1,0.4 1,1 v 14 c 0,0.6 -0.4,1 -1,1 H 24 c -0.6,0 -1,-0.4 -1,-1 v -14 c 0,-0.5 0.4,-1 1,-1 z m 9.8,0 H 36 c 0.6,0 1,0.4 1,1 v 14 c 0,0.6 -0.4,1 -1,1 h -2.2 c -0.6,0 -1,-0.4 -1,-1 v -14 c 0,-0.5 0.4,-1 1,-1 z"
     class="st0" />
  <path
     style="fill:#ffffff"
     id="path8"
     d="m 81,1.04 c 0,-0.6 0.4,-1 1,-1 h 5.4 c 0.6,0 0.7,0.3 0.3,0.7 l -6,6 C 81.3,7.14 81,7.04 81,6.44 Z m 0,15.8 c 0,0.6 0.4,1 1,1 h 5.4 c 0.6,0 0.7,-0.3 0.3,-0.7 l -6,-6 C 81.3,10.74 81,10.84 81,11.44 Z M 98.8,1.04 c 0,-0.6 -0.4,-1 -1,-1 h -5.4 c -0.6,0 -0.7,0.3 -0.3,0.7 l 6,6 c 0.4,0.4 0.7,0.3 0.7,-0.3 z m 0,15.8 c 0,0.6 -0.4,1 -1,1 h -5.4 c -0.6,0 -0.7,-0.3 -0.3,-0.7 l 6,-6 c 0.4,-0.4 0.7,-0.3 0.7,0.3 z"
     class="st0" />
  <path
     style="fill:#ffffff"
     id="path10"
     d="m 112.7,4.64 c 0,0.6 0.4,1 1,1 h 4.1 c 0.6,0 0.7,-0.3 0.3,-0.7 l -4.7,-4.7 c -0.4,-0.4 -0.7,-0.3 -0.7,0.3 z m -7.1,1 c 0.6,0 1,-0.4 1,-1 v -4.1 c 0,-0.6 -0.3,-0.7 -0.7,-0.3 l -4.7,4.7 c -0.4,0.4 -0.3,0.7 0.3,0.7 z m 1,7.1 c 0,-0.6 -0.4,-1 -1,-1 h -4.1 c -0.6,0 -0.7,0.3 -0.3,0.7 l 4.7,4.7 c 0.4,0.4 0.7,0.3 0.7,-0.3 z m 7.1,-1 c -0.6,0 -1,0.4 -1,1 v 4.1 c 0,0.5 0.3,0.7 0.7,0.3 l 4.7,-4.7 c 0.4,-0.4 0.3,-0.7 -0.3,-0.7 z"
     class="st0" />
  <path
     style="fill:#ffffff"
     id="path12"
     d="m 67,5.44 c -0.5,0.4 -1.2,0.6 -1.8,0.6 H 62 c -0.6,0 -1,0.4 -1,1 v 5.7 c 0,0.6 0.4,1 1,1 h 4.2 c 0.3,0.2 0.5,0.4 0.8,0.6 l 3.5,2.6 c 0.4,0.3 0.8,0.1 0.8,-0.4 V 3.14 c 0,-0.5 -0.4,-0.7 -0.8,-0.4 z"
     class="st0" />
  <path
     style="fill:none;stroke:#ffffff;stroke-width:1.5;stroke-linecap:round"
     id="path14"
     d="m 73.9,2.14 c 0,0 3.9,-0.8 3.9,7.7 0,8.5 -3.9,7.8 -3.9,7.8"
     class="st1" />
  <path
     style="fill:none;stroke:#ffffff;stroke-width:1.5;stroke-linecap:round"
     id="path16"
     d="m 72.6,6.04 c 0,0 2.6,-0.4 2.6,3.8 0,4.2 -2.6,3.9 -2.6,3.9"
     class="st1" />
  <path
     style="fill:#ffffff"
     id="path18"
     d="m 47,5.44 c -0.5,0.4 -1.2,0.6 -1.8,0.6 H 42 c -0.6,0 -1,0.4 -1,1 v 5.7 c 0,0.6 0.4,1 1,1 h 4.2 c 0.3,0.2 0.5,0.4 0.8,0.6 l 3.5,2.6 c 0.4,0.3 0.8,0.1 0.8,-0.4 V 3.14 c 0,-0.5 -0.4,-0.7 -0.8,-0.4 z"
     class="st0" />
  <path
     style="fill:none;stroke:#ffffff;stroke-width:2;stroke-linecap:round"
     id="path20"
     d="m 52.8,6.64 5.4,5.4 m -5.4,0 5.4,-5.4"
     class="st2" />
  <path
     style="fill:none;stroke:#ffffff"
     id="path22"
     d="m 128.7,8.24 c -6.2,-4.2 -6.5,7.8 0,3.9 m 6.5,-3.9 c -6.2,-4.2 -6.5,7.8 0,3.9"
     class="st3" />
  <path
     style="fill:#ffffff"
     id="path24"
     d="m 122.2,3.04 h 15.7 v 13.1 h -15.7 z m -1.4,-1.4 v 15.7 h 18.3 V 1.64 Z"
     class="st0" />
  <path
     style="fill:#ffffff"
     id="path26"
     d="m 143.2,2.64 h 14 c 1.1,0 2,0.9 2,2 v 10 c 0,1.1 -0.9,2 -2,2 h -14 c -1.1,0 -2,-0.9 -2,-2 v -10 c 0,-1.1 0.9,-2 2,-2 z"
     class="st0" />
  <path
     style="fill:#231f20"
     id="path28"
     d="m 146.4,13.44 c -0.8,0 -1.6,-0.4 -2.1,-1 -1.1,-1.4 -1,-3.4 0.1,-4.8 0.5,-0.6 2,-1.7 4.6,0.2 l -0.6,0.8 c -1.4,-1 -2.6,-1.1 -3.3,-0.3 -0.8,1 -0.8,2.4 -0.1,3.5 0.7,0.9 1.9,0.8 3.4,-0.1 l 0.5,0.9 c -0.7,0.5 -1.6,0.7 -2.5,0.8 z m 7.5,0 c -0.8,0 -1.6,-0.4 -2.1,-1 -1.1,-1.4 -1,-3.4 0.1,-4.8 0.5,-0.6 2,-1.7 4.6,0.2 l -0.5,0.8 c -1.4,-1 -2.6,-1.1 -3.3,-0.3 -0.8,1 -0.8,2.4 -0.1,3.5 0.7,0.9 1.9,0.8 3.4,-0.1 l 0.5,0.9 c -0.8,0.5 -1.7,0.7 -2.6,0.8 z"
     class="st4" />
  <path
     style="fill:#ffffff"
     id="path30"
     d="m 60.3,76.64 c 0.6,0.2 0.8,0.8 0.6,1.4 -0.1,0.3 -0.3,0.5 -0.6,0.6 L 30,96.14 c -1,0.6 -1.7,0.1 -1.7,-1 v -35 c 0,-1.1 0.8,-1.5 1.7,-1 z"
     class="st0" />
  <path
     style="opacity:0.75;fill:none;stroke:#ffffff;stroke-width:5;enable-background:new"
     id="path32"
     d="m 2.5,78.64 c 0,-20.7 16.8,-37.5 37.5,-37.5 20.7,0 37.5,16.8 37.5,37.5 0,20.7 -16.8,37.5 -37.5,37.5 -20.7,0 -37.5,-16.8 -37.5,-37.5 z"
     class="st5" />
  <path
     style="fill:#ffffff"
     id="path34"
     d="m 140.3,76.64 c 0.6,0.2 0.8,0.8 0.6,1.4 -0.1,0.3 -0.3,0.5 -0.6,0.6 L 110,96.14 c -1,0.6 -1.7,0.1 -1.7,-1 v -35 c 0,-1.1 0.8,-1.5 1.7,-1 z"
     class="st0" />
  <path
     style="fill:none;stroke:#ffffff;stroke-width:5"
     id="path36"
     d="m 82.5,78.64 c 0,-20.7 16.8,-37.5 37.5,-37.5 20.7,0 37.5,16.8 37.5,37.5 0,20.7 -16.8,37.5 -37.5,37.5 -20.7,0 -37.5,-16.8 -37.5,-37.5 z"
     class="st6" />
  <circle
     style="fill:#ffffff"
     id="circle38"
     r="8.1000004"
     cy="46.739998"
     cx="201.89999"
     class="st0" />
  <circle
     style="opacity:0.4;fill:#ffffff;enable-background:new"
     id="circle40"
     r="5"
     cy="78.639999"
     cx="233.89999"
     class="st7" />
  <circle
     style="opacity:0.6;fill:#ffffff;enable-background:new"
     id="circle42"
     r="6"
     cy="110.54"
     cx="201.89999"
     class="st8" />
  <circle
     style="opacity:0.8;fill:#ffffff;enable-background:new"
     id="circle44"
     r="7"
     cy="78.639999"
     cx="170.10001"
     class="st9" />
  <circle
     style="opacity:0.9;fill:#ffffff;enable-background:new"
     id="circle46"
     r="7.5"
     cy="55.939999"
     cx="178.2"
     class="st10" />
  <circle
     style="opacity:0.3;fill:#ffffff;enable-background:new"
     id="circle48"
     r="4.5"
     cy="55.739998"
     cx="226.3"
     class="st11" />
  <circle
     style="opacity:0.5;fill:#ffffff;enable-background:new"
     id="circle50"
     r="5.5"
     cy="102.44"
     cx="225.8"
     class="st12" />
  <circle
     style="opacity:0.7;fill:#ffffff;enable-background:new"
     id="circle52"
     r="6.5"
     cy="102.44"
     cx="178.2"
     class="st13" />
  <path
     style="fill:#ffffff"
     id="path54"
     d="m 178,9.04 c 0,0.4 -0.4,0.7 -0.9,0.7 -0.1,0 -0.2,0 -0.2,-0.1 L 172,7.84 c -0.5,-0.2 -0.6,-0.6 -0.1,-0.8 l 6.2,-3.6 c 0.5,-0.3 0.8,-0.1 0.7,0.5 z"
     class="st0" />
  <path
     style="fill:#ffffff"
     id="path56"
     d="m 169.4,15.54 c -1,0 -2,-0.2 -2.9,-0.7 -2,-1 -3.2,-3 -3.2,-5.2 0.1,-3.4 2.9,-6 6.3,-6 2.5,0.1 4.8,1.7 5.6,4.1 l 0.1,-0.1 2.1,1.1 c -0.6,-4.4 -4.7,-7.5 -9.1,-6.9 -3.9,0.6 -6.9,3.9 -7,7.9 0,2.9 1.7,5.6 4.3,7 1.2,0.6 2.5,0.9 3.8,1 2.6,0 5,-1.2 6.6,-3.3 l -1.8,-0.9 c -1.2,1.2 -3,2 -4.8,2 z"
     class="st0" />
  <path
     style="fill:#ffffff"
     id="path58"
     d="m 183.4,2.84 c 0.8,0 1.5,0.7 1.5,1.5 0,0.8 -0.7,1.5 -1.5,1.5 -0.8,0 -1.5,-0.7 -1.5,-1.5 0,-0.9 0.7,-1.5 1.5,-1.5 z m 5.1,0 h 8.5 c 0.9,0 1.5,0.7 1.5,1.5 0,0.8 -0.7,1.5 -1.5,1.5 h -8.5 c -0.9,0 -1.5,-0.7 -1.5,-1.5 -0.1,-0.9 0.6,-1.5 1.5,-1.5 z m -5.1,5 c 0.8,0 1.5,0.7 1.5,1.5 0,0.8 -0.7,1.5 -1.5,1.5 -0.8,0 -1.5,-0.7 -1.5,-1.5 0,-0.9 0.7,-1.5 1.5,-1.5 z m 5.1,0 h 8.5 c 0.9,0 1.5,0.7 1.5,1.5 0,0.8 -0.7,1.5 -1.5,1.5 h -8.5 c -0.9,0 -1.5,-0.7 -1.5,-1.5 -0.1,-0.9 0.6,-1.5 1.5,-1.5 z m -5.1,5 c 0.8,0 1.5,0.7 1.5,1.5 0,0.8 -0.7,1.5 -1.5,1.5 -0.8,0 -1.5,-0.7 -1.5,-1.5 0,-0.9 0.7,-1.5 1.5,-1.5 z m 5.1,0 h 8.5 c 0.9,0 1.5,0.7 1.5,1.5 0,0.8 -0.7,1.5 -1.5,1.5 h -8.5 c -0.9,0 -1.5,-0.7 -1.5,-1.5 -0.1,-0.9 0.6,-1.5 1.5,-1.5 z"
     class="st0" />
</svg>
