<?xml version="1.0" encoding="UTF-8" standalone="no"?>
<svg
   xmlns:dc="http://purl.org/dc/elements/1.1/"
   xmlns:cc="http://creativecommons.org/ns#"
   xmlns:rdf="http://www.w3.org/1999/02/22-rdf-syntax-ns#"
   xmlns:svg="http://www.w3.org/2000/svg"
   xmlns="http://www.w3.org/2000/svg"
   xml:space="preserve"
   enable-background="new 0 0 478 86"
   viewBox="0 0 476.733 85.138"
   height="85.138"
   width="476.733"
   y="0px"
   x="0px"
   id="Layer_1"
   version="1.1"><metadata
   id="metadata9"><rdf:RDF><cc:Work
       rdf:about=""><dc:format>image/svg+xml</dc:format><dc:type
         rdf:resource="http://purl.org/dc/dcmitype/StillImage" /></cc:Work></rdf:RDF></metadata><defs
   id="defs7" />
<path
   style="fill:#ffffff"
   id="path2"
   d="m 26.382,8.057 h -0.09 c -4.41,0 -8.782,0.517 -13.191,0.517 C 8.781,8.574 4,8.37 0,8.011 v 2.34 l 4,0.27 v 54.358 l -4,0.36 v 2.34 c 5,-0.36 8.68,-0.541 13.09,-0.541 4.32,0 8.91,0.181 12.91,0.541 v -2.34 L 23,65.068 V 49.057 h 4.282 c 16.739,0 23.399,-8.936 23.399,-20.005 C 50.68,17.173 43.661,8.057 26.382,8.057 Z m 0.9,39 H 23 V 10.71 l 3.491,-0.36 c 5.58,0 6.875,3.549 7.055,18.848 -0.09,14.67 -1.405,17.859 -6.264,17.859 z m 77.717,18.011 3,0.271 v 2.34 c -8,-0.721 -16,-0.721 -24,0 v -2.34 c 1,-0.091 2.288,-0.271 3.548,-0.271 L 87.135,32.489 c 0,-2.79 -1.255,-4.95 -4.585,-4.95 -3.69,0 -6.551,2.34 -7.551,3.87 v 33.659 l 3,0.271 v 2.34 c -8,-0.721 -16,-0.721 -24,0 v -2.34 c 1,-0.091 2,-0.271 3,-0.271 V 10.62 c -1,0 -2,-0.09 -3,-0.27 V 8.01 c 6,0.63 12.522,0.047 19.001,-5.953 h 1.999 v 27.552 c 3,-3.78 8.295,-8.55 16.305,-8.55 8.64,0 13.695,5.49 13.695,15.839 z M 114.22,8.91 c 0,-5.04 4.05,-8.91 9.18,-8.91 5.04,0 9.18,3.87 9.18,8.91 0,5.13 -4.14,9.089 -9.18,9.089 C 118.27,18 114.22,14.04 114.22,8.91 Z m 18.779,56.158 3,0.271 v 2.34 c -8,-0.721 -16,-0.721 -24,0 v -2.34 c 1,-0.091 2,-0.271 3,-0.271 V 25.65 c -1,0 -2,-0.09 -3,-0.27 v -2.34 c 6,0.27 12.48,0.018 18.96,-1.982 h 2.04 z m 28,0 4,0.271 v 2.34 c -9,-0.721 -17,-0.721 -25,0 v -2.34 c 1,-0.091 2,-0.271 4,-0.271 V 10.62 c -2,0 -3,-0.09 -4,-0.27 V 8.01 c 6,0.63 12.83,0.047 19.309,-5.953 h 1.691 z M 192.158,20.7 c -14.579,0 -23.849,9.359 -23.849,23.939 0,14.489 9.27,23.579 23.849,23.579 14.489,0 23.669,-9.089 23.669,-23.579 0,-14.58 -9.18,-23.939 -23.669,-23.939 z m 0,45.538 c -4.68,0 -6.03,-3.87 -6.03,-21.599 0,-18.179 1.35,-22.049 6.03,-22.049 4.68,0 5.85,3.87 5.85,22.049 0,17.729 -1.17,21.599 -5.85,21.599 z m 64.978,-12.566 c 0,9.09 -5.939,14.973 -19.079,14.973 -7.109,0 -10.979,-2.308 -13.409,-3.118 l -0.18,2.529 h -2.52 c 0.27,-3 0.54,-5.665 0.54,-8.365 0,-2.88 -0.27,-5.635 -0.54,-8.635 h 2.52 c 0,0 0.54,2.865 0.54,4.485 0,3.42 3.96,11.037 12.059,11.037 3.6,0 5.76,-2.647 5.76,-5.707 0,-10.709 -22.049,-9.874 -22.049,-25.173 0,-9.18 5.669,-15.018 19.169,-15.018 5.76,0 9.899,0.775 12.329,1.585 l 0.09,-1.209 h 2.61 l 0.022,2.432 v 0.18 c 0,2.07 -0.506,3.999 -0.506,6.069 0,2.79 0.123,5.319 0.483,8.319 h -2.609 c -0.18,-1 -0.27,-1.929 -0.359,-2.919 -0.091,-0.09 -0.091,-0.327 -0.091,-0.507 0,-2.88 -2.34,-12.095 -11.159,-12.095 -5.22,0 -6.479,2.817 -6.479,5.697 0,10.71 22.858,8.611 22.858,25.44 z M 285.487,20.7 c -14.58,0 -23.85,9.359 -23.85,23.939 0,14.489 9.27,23.579 23.85,23.579 14.489,0 23.669,-9.089 23.669,-23.579 0,-14.58 -9.18,-23.939 -23.669,-23.939 z m 0,45.538 c -4.681,0 -6.03,-3.87 -6.03,-21.599 0,-18.179 1.35,-22.049 6.03,-22.049 4.68,0 5.85,3.87 5.85,22.049 -10e-4,17.729 -1.171,21.599 -5.85,21.599 z M 344.889,20.7 c -7.29,0 -11.89,6.03 -11.89,6.03 v -5.672 h -1.883 c -6.48,2 -13.117,2.252 -19.117,1.982 v 2.34 c 1,0.18 2,0.27 3,0.27 v 56.877 c -1,0 -2,0.181 -3,0.271 v 2.34 c 8,-0.72 16,-0.72 24,0 v -2.34 l -3,-0.271 V 62.188 c 0,0 4.6,6.029 11.89,6.029 10.89,0 17.11,-9.899 17.11,-23.668 v -0.09 -0.09 c 0,-13.77 -6.22,-23.669 -17.11,-23.669 z m -6.442,42.478 c -4.949,0 -5.448,-5.76 -5.448,-5.76 V 31.499 c 0,0 0.499,-5.76 5.448,-5.76 4.95,0 6.12,6.39 6.12,18.719 0,12.329 -1.17,18.72 -6.12,18.72 z m 77.552,1.89 4,0.271 v 2.34 c -8,-0.721 -17,-0.721 -25,0 v -2.34 c 1,-0.091 2.469,-0.271 3.73,-0.271 l -0.231,-32.579 c 0,-2.79 -1.376,-4.95 -4.706,-4.95 -3.689,0 -6.792,2.34 -7.792,3.87 v 33.659 l 4,0.271 v 2.34 c -8,-0.721 -17,-0.721 -25,0 v -2.34 c 1,-0.091 3,-0.271 4,-0.271 V 10.62 c -1,0 -3,-0.09 -4,-0.27 V 8.01 c 7,0.63 13.006,0.047 19.486,-5.953 H 386 v 27.552 c 3,-3.78 8.295,-8.55 16.305,-8.55 8.64,0 13.695,5.49 13.695,15.839 v 28.17 z m 47,-40.499 c -1,0.27 -1.908,0.36 -3.167,0.45 l -8.749,26.729 -5.13,15.749 c -4.05,11.249 -8.279,13.95 -14.849,13.95 -3.69,0 -6.75,-2.791 -6.75,-6.391 0,-3.42 2.609,-6.209 6.3,-6.209 3.06,0 5.579,1.979 6.21,4.949 0,0 0.27,0.899 1.8,0.899 2.159,0 3.96,-2.109 3.96,-5.618 0,-1.439 -0.271,-2.02 -0.271,-2.02 h -3.6 L 421.947,24.529 419,24.479 v -2.25 c 8,0.72 17,0.72 25,0 v 2.34 c -1,0.09 -2.584,0.27 -3.934,0.36 l 9.655,23.309 7.636,-23.219 C 456.097,24.929 455,24.839 454,24.569 v -2.34 c 2,0.54 7,0.54 9,0 v 2.34 z m 13.734,35.639 c 0,4.5 -3.689,8.009 -8.189,8.009 -4.5,0 -8.1,-3.51 -8.1,-8.009 0,-4.5 3.6,-7.92 8.1,-7.92 4.5,0 8.189,3.42 8.189,7.92 z" />
</svg>