<?xml version="1.0" encoding="UTF-8" standalone="no"?>
<svg
   xmlns:dc="http://purl.org/dc/elements/1.1/"
   xmlns:cc="http://creativecommons.org/ns#"
   xmlns:rdf="http://www.w3.org/1999/02/22-rdf-syntax-ns#"
   xmlns:svg="http://www.w3.org/2000/svg"
   xmlns="http://www.w3.org/2000/svg"
   xml:space="preserve"
   enable-background="new 0 0 31 20"
   viewBox="0 0 30 19.351669"
   height="19.351669"
   width="30"
   y="0px"
   x="0px"
   id="Layer_1"
   version="1.1"><metadata
   id="metadata11"><rdf:RDF><cc:Work
       rdf:about=""><dc:format>image/svg+xml</dc:format><dc:type
         rdf:resource="http://purl.org/dc/dcmitype/StillImage" /></cc:Work></rdf:RDF></metadata><defs
   id="defs9" />
<g
   id="g4"
   transform="translate(-0.5,-952.6849)">
	<path
   id="path2"
   d="m 30.5,962.362 c -0.009,-0.366 -0.152,-0.73 -0.363,-0.968 l -7.258,-8.226 c -0.6,-0.616 -1.486,-0.628 -2.056,-0.121 -0.57,0.507 -0.628,1.486 -0.121,2.056 l 5.126,5.806 H 1.952 c -0.802,0 -1.452,0.65 -1.452,1.452 0,0.802 0.65,1.452 1.452,1.452 h 23.876 l -5.126,5.806 c -0.507,0.57 -0.435,1.535 0.121,2.056 0.58,0.545 1.55,0.449 2.056,-0.121 l 7.258,-8.226 c 0.258,-0.288 0.36,-0.577 0.363,-0.966 z" />
</g>
</svg>