<?xml version="1.0" encoding="UTF-8" standalone="no"?>
<svg
   xmlns:dc="http://purl.org/dc/elements/1.1/"
   xmlns:cc="http://creativecommons.org/ns#"
   xmlns:rdf="http://www.w3.org/1999/02/22-rdf-syntax-ns#"
   xmlns:svg="http://www.w3.org/2000/svg"
   xmlns="http://www.w3.org/2000/svg"
   xml:space="preserve"
   enable-background="new 0 0 31 20"
   viewBox="0 0 30 19.351261"
   height="19.351261"
   width="30"
   y="0px"
   x="0px"
   id="Layer_1"
   version="1.1"><metadata
   id="metadata11"><rdf:RDF><cc:Work
       rdf:about=""><dc:format>image/svg+xml</dc:format><dc:type
         rdf:resource="http://purl.org/dc/dcmitype/StillImage" /></cc:Work></rdf:RDF></metadata><defs
   id="defs9" />
<g
   id="g4"
   transform="translate(-0.5,-952.6869)">
	<path
   style="fill:#ffffff"
   id="path2"
   d="m 0.863,963.33 7.258,8.226 c 0.507,0.57 1.476,0.665 2.056,0.121 0.556,-0.522 0.628,-1.486 0.121,-2.056 l -5.126,-5.806 h 23.876 c 0.802,0 1.452,-0.65 1.452,-1.452 0,-0.802 -0.65,-1.452 -1.452,-1.452 H 5.172 l 5.126,-5.806 c 0.507,-0.57 0.449,-1.55 -0.121,-2.056 -0.57,-0.507 -1.456,-0.495 -2.056,0.121 l -7.258,8.226 c -0.211,0.237 -0.354,0.602 -0.363,0.968 0.003,0.387 0.105,0.676 0.363,0.966 z" />
</g>
</svg>